# xmcd
#
# Track frame offsets:
#	150
#	17176
#	33540
#	50660
#	64403
#	80625
#	93531
#	113789
#	127452
#	146680
#	162890
#	177898
#	194057
#	209518
#	223672
#	237765
#	251471
#	265079
#	281229
#	295179
#	309462
#
# Disc length: 4291 seconds
#
# Revision: 0
# Processed by: cddbd v1.5.2PL0 Copyright (c) Steve Scherf et al.
# Submitted via: EasyCDDAExtractor 16.0.9.1
#
DISCID=5310c115
DTITLE=Nu Country Traxx Volume 203 US
DYEAR=2016
DGENRE=country
TTITLE0=Sam Hunt - Make You Miss Me
TTITLE1=Cam - Mayday
TTITLE2=Jordan Rager ft. Jason Aldean - Southern Boy
TTITLE3=Kane Brown - Used To Love You Sober
TTITLE4=Brothers Osborne - 21 Summer
TTITLE5=Granger Smith - If The Boot Fits
TTITLE6=Reba - Just Like Them Horses
TTITLE7=David Ray - Light It Up
TTITLE8=Dan and Shay - From The Ground Up
TTITLE9=LANco - Long Live Tonight
TTITLE10=Aaron Watson - Getaway Truck
TTITLE11=Clare Dunn - Tuxedo
TTITLE12=Chelsea Bain - The Power Of A Woman
TTITLE13=Lauren Lizabeth - To Be Young
TTITLE14=Brett Young - Sleep Without You
TTITLE15=Randy Rogers Band - Neon Blues
TTITLE16=Eric Church - Record Year
TTITLE17=Tucker Beathard - Rock On
TTITLE18=Sister Hazel - That Kind Of Beautiful
TTITLE19=Chase Rice - Whisper
TTITLE20=Brooke Eden - Daddy's Money
EXTD=
EXTT0=
EXTT1=
EXTT2=
EXTT3=
EXTT4=
EXTT5=
EXTT6=
EXTT7=
EXTT8=
EXTT9=
EXTT10=
EXTT11=
EXTT12=
EXTT13=
EXTT14=
EXTT15=
EXTT16=
EXTT17=
EXTT18=
EXTT19=
EXTT20=
PLAYORDER=
